<?xml version="1.0" standalone="no"?>
<!DOCTYPE svg PUBLIC "-//W3C//DTD SVG 20010904//EN"
 "http://www.w3.org/TR/2001/REC-SVG-20010904/DTD/svg10.dtd">
<svg version="1.0" xmlns="http://www.w3.org/2000/svg"
 width="225.000000pt" height="225.000000pt" viewBox="0 0 225.000000 225.000000"
 preserveAspectRatio="xMidYMid meet">

<g transform="translate(0.000000,225.000000) scale(0.100000,-0.100000)"
fill="white" stroke="none">
<path d="M481 2235 c-225 -49 -403 -224 -462 -453 -18 -70 -19 -114 -19 -651
0 -629 2 -657 58 -775 81 -171 225 -289 410 -337 70 -18 114 -19 651 -19 629
0 657 2 775 58 171 81 289 225 337 410 18 70 19 114 19 651 0 629 -2 657 -58
775 -81 171 -225 289 -410 337 -70 18 -113 19 -656 18 -455 0 -595 -4 -645
-14z m280 -475 c642 -157 1006 -328 1090 -514 27 -60 25 -140 -7 -203 -68
-137 -296 -281 -694 -438 -177 -70 -457 -165 -488 -165 -71 0 -122 54 -122
129 0 72 30 93 230 160 351 118 652 253 774 345 79 60 85 71 52 105 -87 91
-420 222 -831 327 -209 53 -237 68 -250 137 -9 48 19 104 65 129 44 23 36 23
181 -12z "/>
</g>
</svg>
