<?xml version="1.0" standalone="no"?>
<!DOCTYPE svg PUBLIC "-//W3C//DTD SVG 20010904//EN"
 "http://www.w3.org/TR/2001/REC-SVG-20010904/DTD/svg10.dtd">
<svg version="1.0" xmlns="http://www.w3.org/2000/svg"
 width="224.000000pt" height="224.000000pt" viewBox="0 0 224.000000 224.000000"
 preserveAspectRatio="xMidYMid meet">

<g transform="translate(0.000000,224.000000) scale(0.100000,-0.100000)"
fill="white" stroke="none">
<path d="M988 1950 c-198 -32 -397 -145 -524 -298 -307 -370 -255 -918 115
-1214 88 -70 208 -136 267 -145 52 -9 64 11 64 109 l0 78 -78 0 c-134 0 -172
21 -224 125 -17 33 -51 79 -77 103 -38 35 -43 44 -31 53 20 13 69 3 100 -20
14 -10 40 -37 58 -61 51 -67 78 -83 141 -88 76 -5 103 7 120 54 7 22 20 46 28
55 13 15 7 18 -56 32 -189 43 -286 145 -311 328 -16 118 3 207 62 291 16 23
17 33 8 73 -12 52 0 146 22 172 17 21 69 9 162 -38 79 -39 80 -40 135 -28 70
15 250 15 314 0 47 -11 51 -10 132 30 49 24 99 42 121 43 36 1 39 -1 50 -39
15 -50 17 -125 4 -160 -8 -21 -5 -32 20 -67 46 -64 64 -136 57 -238 -7 -107
-37 -189 -90 -247 -62 -68 -122 -97 -260 -127 l-27 -6 22 -43 c19 -37 22 -63
27 -212 l6 -170 30 -3 c65 -6 242 96 348 200 310 308 339 800 67 1143 -112
140 -274 246 -450 295 -86 24 -264 34 -352 20z"/>
</g>
</svg>
